<?xml version="1.0" encoding="UTF-8" standalone="no"?>
<svg
   xmlns:dc="http://purl.org/dc/elements/1.1/"
   xmlns:cc="http://creativecommons.org/ns#"
   xmlns:rdf="http://www.w3.org/1999/02/22-rdf-syntax-ns#"
   xmlns:svg="http://www.w3.org/2000/svg"
   xmlns="http://www.w3.org/2000/svg"
   xmlns:sodipodi="http://sodipodi.sourceforge.net/DTD/sodipodi-0.dtd"
   xmlns:inkscape="http://www.inkscape.org/namespaces/inkscape"
   version="1.1"
   width="595.27557"
   height="841.88977"
   id="svg29"
   viewBox="0 0 595.27557 841.88977"
   sodipodi:docname="Preownedproperties Logo.cdr">
  <metadata
     id="metadata35">
    <rdf:RDF>
      <cc:Work
         rdf:about="">
        <dc:format>image/svg+xml</dc:format>
        <dc:type
           rdf:resource="http://purl.org/dc/dcmitype/StillImage" />
      </cc:Work>
    </rdf:RDF>
  </metadata>
  <defs
     id="defs33" />
  <sodipodi:namedview
     pagecolor="#ffffff"
     bordercolor="#666666"
     borderopacity="1"
     objecttolerance="10"
     gridtolerance="10"
     guidetolerance="10"
     inkscape:pageopacity="0"
     inkscape:pageshadow="2"
     inkscape:window-width="640"
     inkscape:window-height="480"
     id="namedview31" />
  <g
     id="Layer1000">
    <g
       id="Layer1001">
      <path
         d="m 147.0307,384.6891 a 12.0555,13.1492 0 0 1 12.0555,13.1492 12.0555,13.1492 0 1 1 -12.0555,-13.1492 z"
         style="fill:none;stroke:#1b1918;stroke-width:2.9999;stroke-linecap:round;stroke-linejoin:round;stroke-dasharray:none"
         id="path2" />
      <path
         d="m 147.098,389.4673 a 7.635,8.3277 0 0 1 7.635,8.3277 7.635,8.3277 0 1 1 -7.635,-8.3277 z"
         style="fill:none;stroke:#1b1918;stroke-width:2.9999;stroke-linecap:round;stroke-linejoin:round;stroke-dasharray:none"
         id="path4" />
      <path
         d="m 147.1743,394.1644 a 3.409,3.7182 0 0 1 3.409,3.7182 3.409,3.7182 0 1 1 -3.409,-3.7182 z"
         style="fill:#1b1918;fill-rule:evenodd;stroke:#1b1918;stroke-width:2.9999;stroke-linecap:round;stroke-linejoin:round;stroke-dasharray:none"
         id="path6" />
    </g>
    <text
       x="69.1007"
       y="418.3988"
       id="text11"><tspan
         font-family="'Arial Rounded MT Bold'"
         font-size="43.5px"
         fill="#1b1918"
         id="tspan9">pre</tspan></text>
    <text
       x="162.3266"
       y="417.86761"
       id="text15"><tspan
         font-family="'Arial Rounded MT Bold'"
         font-size="43.5px"
         fill="#1b1918"
         id="tspan13">wnedpr</tspan></text>
    <g
       id="Layer1002">
      <path
         d="m 323.8885,384.2887 a 12.0553,13.1493 0 0 1 12.0553,13.1493 12.0553,13.1493 0 1 1 -12.0553,-13.1493 z"
         style="fill:none;stroke:#1b1918;stroke-width:2.9999;stroke-linecap:round;stroke-linejoin:round;stroke-dasharray:none"
         id="path17" />
      <path
         d="m 323.9558,389.0669 a 7.6349,8.3278 0 0 1 7.6349,8.3278 7.6349,8.3278 0 1 1 -7.6349,-8.3278 z"
         style="fill:none;stroke:#1b1918;stroke-width:2.9999;stroke-linecap:round;stroke-linejoin:round;stroke-dasharray:none"
         id="path19" />
      <path
         d="m 324.0321,393.764 a 3.4089,3.7183 0 0 1 3.4089,3.7183 3.4089,3.7183 0 1 1 -3.4089,-3.7183 z"
         style="fill:#1b1918;fill-rule:evenodd;stroke:#1b1918;stroke-width:2.9999;stroke-linecap:round;stroke-linejoin:round;stroke-dasharray:none"
         id="path21" />
    </g>
    <text
       x="341.57571"
       y="418.13739"
       id="text26"><tspan
         font-family="'Arial Rounded MT Bold'"
         font-size="43.5px"
         fill="#1b1918"
         id="tspan24">perties.in</tspan></text>
  </g>
</svg>
